<svg xmlns="http://www.w3.org/2000/svg" viewBox="0 0 64 64"><path fill="currentColor" d="M11.6 41.9V1h13.3l8 27.9 8-27.9h13.3v41H46V9.7l-8.7 32.2h-8.5L20 9.7v32.2h-8.4zM10.2 63V45.1h4.9c1.9 0 3 .1 3.6.3.9.3 1.6.9 2.2 1.7.9 1.3.9 2 .9 3.5 0 1.2-.1 2-.4 2.7-.3.7-.7 1.3-1.3 1.7-.6.4-1 .7-1.6.9-.7.1-1.7.3-3.2.3h-2V63h-3.1zm3-14.9v5.1H15c1.2 0 2-.1 2.5-.3s.7-.4 1-.9c.3-.4.3-.9.3-1.4 0-.6-.1-1.2-.4-1.6s-.7-.7-1.2-.7c-.4-.1-1.2-.1-2.2-.1l-1.8-.1zM27 63V45.1h3v7.1h5.9v-7.1h3v17.8h-3v-7.7H30V63h-3zm17.9 0V45.1h4.9c1.9 0 3 .1 3.6.3.9.3 1.6.9 2.2 1.7.9 1.3.9 2 .9 3.5 0 1.2-.1 2-.4 2.7-.3.7-.7 1.3-1.3 1.7-.6.4-1 .7-1.6.9-.7.1-1.7.3-3.2.3h-2V63h-3.1zm3-14.9v5.1h1.7c1.2 0 2-.1 2.5-.3.4-.1.7-.4 1-.9.3-.4.3-.9.3-1.4 0-.6-.1-1.2-.4-1.6-.3-.4-.7-.7-1.2-.7-.4-.1-1.2-.1-2.2-.1l-1.7-.1z"/></svg>